<?xml version="1.0" encoding="UTF-8" standalone="no"?>
<!-- Created with Inkscape (http://www.inkscape.org/) -->

<svg
   xmlns:dc="http://purl.org/dc/elements/1.1/"
   xmlns:cc="http://creativecommons.org/ns#"
   xmlns:rdf="http://www.w3.org/1999/02/22-rdf-syntax-ns#"
   xmlns:svg="http://www.w3.org/2000/svg"
   xmlns="http://www.w3.org/2000/svg"
   xmlns:sodipodi="http://sodipodi.sourceforge.net/DTD/sodipodi-0.dtd"
   xmlns:inkscape="http://www.inkscape.org/namespaces/inkscape"
   width="70.374985mm"
   height="81.26207mm"
   viewBox="0 0 70.374985 81.26207"
   version="1.1"
   id="svg4687"
   inkscape:version="0.92.3 (2405546, 2018-03-11)"
   sodipodi:docname="vector-r-packages.svg">
  <defs
     id="defs4681" />
  <sodipodi:namedview
     id="base"
     pagecolor="#ffffff"
     bordercolor="#666666"
     borderopacity="1.0"
     inkscape:pageopacity="0.0"
     inkscape:pageshadow="2"
     inkscape:zoom="0.35355339"
     inkscape:cx="-222.40221"
     inkscape:cy="130.71531"
     inkscape:document-units="mm"
     inkscape:current-layer="layer1"
     showgrid="false"
     showborder="false"
     inkscape:window-width="1920"
     inkscape:window-height="1017"
     inkscape:window-x="-8"
     inkscape:window-y="-8"
     inkscape:window-maximized="1"
     fit-margin-top="0"
     fit-margin-left="0"
     fit-margin-right="0"
     fit-margin-bottom="0" />
  <metadata
     id="metadata4684">
    <rdf:RDF>
      <cc:Work
         rdf:about="">
        <dc:format>image/svg+xml</dc:format>
        <dc:type
           rdf:resource="http://purl.org/dc/dcmitype/StillImage" />
        <dc:title></dc:title>
      </cc:Work>
    </rdf:RDF>
  </metadata>
  <g
     inkscape:label="Layer 1"
     inkscape:groupmode="layer"
     id="layer1"
     transform="translate(-392.88803,-317.23696)">
    <g
       id="g4289"
       transform="matrix(6.5948769,0,0,6.5948769,-487.9941,-164.54228)">
      <path
         inkscape:connector-curvature="0"
         id="path4000"
         d="m 138.90625,75.982562 c -1.30364,0 -1.54572,0.12428 -1.54572,0.12428 v 0.120395 c 0,0 0.24208,-0.124279 1.54572,-0.124279 1.30364,0 1.54573,0.124279 1.54573,0.124279 v -0.120395 c 0,0 -0.24209,-0.12428 -1.54573,-0.12428 z m 0,0.283999 c -1.20077,0 -1.48383,0.04612 -1.48383,0.04612 v 0.159233 l -0.36119,0.625768 v 0.0044 c 0.33282,-0.02994 0.89796,-0.05947 1.84502,-0.05947 0.94725,0 1.51223,0.02953 1.84502,0.05947 v -0.0044 l -0.36119,-0.625768 v -0.159233 c 0,0 -0.28306,-0.04612 -1.48383,-0.04612 z m 0,0.893988 c -0.94706,0 -1.5122,0.02954 -1.84502,0.05947 v 4.50781 c 0.33282,0.02993 0.89796,0.05947 1.84502,0.05947 0.94725,0 1.51223,-0.02953 1.84502,-0.05947 v -4.50781 c -0.33279,-0.02994 -0.89777,-0.05947 -1.84502,-0.05947 z m 1.84405,4.685248 c -0.3329,0.02991 -0.89759,0.05947 -1.84405,0.05947 -0.94626,0 -1.51112,-0.02932 -1.84405,-0.05923 0.003,0.01079 0.0835,0.246617 1.84405,0.246617 1.76464,0 1.8416,-0.237104 1.84405,-0.246859 z m -3.25409,0.350749 0.1437,0.178652 c 0,0 0.39918,0.07136 1.2661,0.07136 0.86692,0 1.2661,-0.07136 1.2661,-0.07136 l 0.1437,-0.178652 c 0,0 -0.40436,0.09612 -1.4098,0.09612 -1.00544,0 -1.4098,-0.09612 -1.4098,-0.09612 z"
         style="fill:#cad9f1;fill-opacity:1;fill-rule:evenodd;stroke:none;stroke-width:0.02348593;stroke-linecap:butt;stroke-linejoin:round;stroke-miterlimit:4;stroke-dasharray:none;stroke-opacity:1" />
      <path
         inkscape:connector-curvature="0"
         id="path4196-7-3-8-2"
         d="m 138.90624,73.05356 -5.33557,3.080524 v 6.160971 l 5.33557,3.080505 5.33559,-3.080505 v -6.160971 z m 0,1.219176 4.27974,2.470917 v 4.941813 l -4.27974,2.470917 -4.27976,-2.470917 v -4.941813 z"
         style="opacity:1;fill:#d38d5f;fill-opacity:1;stroke:none;stroke-width:0.01511618;stroke-linecap:butt;stroke-linejoin:bevel;stroke-miterlimit:4;stroke-dasharray:0.03023236, 0.01511618;stroke-dashoffset:0;stroke-opacity:1" />
      <g
         transform="translate(-0.82196,-10.267855)"
         id="text6755-17-7"
         style="font-style:normal;font-variant:normal;font-weight:normal;font-stretch:normal;font-size:3.32693672px;line-height:125%;font-family:Roboto;-inkscape-font-specification:Roboto;letter-spacing:0px;word-spacing:0px;fill:#1a1a1a;fill-opacity:1;stroke:none;stroke-width:0.00591266px;stroke-linecap:butt;stroke-linejoin:miter;stroke-opacity:1"
         aria-label="croix">
        <path
           inkscape:connector-curvature="0"
           id="path4270"
           style="font-style:normal;font-variant:normal;font-weight:bold;font-stretch:normal;font-family:'Bebas Neue';-inkscape-font-specification:'Bebas Neue Bold';fill:#1a1a1a;stroke-width:0.00591266px"
           d="m 137.5474,89.778512 v 0.332694 c 0,0.166347 -0.0732,0.226232 -0.18963,0.226232 -0.11644,0 -0.18964,-0.05989 -0.18964,-0.226232 v -1.257582 c 0,-0.166347 0.0732,-0.229559 0.18964,-0.229559 0.11644,0 0.18963,0.06321 0.18963,0.229559 v 0.24952 h 0.34601 v -0.226231 c 0,-0.372617 -0.18631,-0.585541 -0.54562,-0.585541 -0.35931,0 -0.54562,0.212924 -0.54562,0.585541 v 1.211005 c 0,0.372617 0.18631,0.58554 0.54562,0.58554 0.35931,0 0.54562,-0.212923 0.54562,-0.58554 v -0.309406 z" />
        <path
           inkscape:connector-curvature="0"
           id="path4272"
           style="font-style:normal;font-variant:normal;font-weight:bold;font-stretch:normal;font-family:'Bebas Neue';-inkscape-font-specification:'Bebas Neue Bold';fill:#c83737;fill-opacity:1;stroke-width:0.00591266px"
           d="m 139.25651,90.646843 c -0.0366,-0.0865 -0.0399,-0.169674 -0.0399,-0.28279 v -0.359309 c 0,-0.242866 -0.0599,-0.419194 -0.24287,-0.495713 0.16302,-0.07652 0.23954,-0.232886 0.23954,-0.472425 v -0.182982 c 0,-0.359309 -0.16302,-0.535637 -0.54229,-0.535637 h -0.55227 v 2.328856 h 0.36596 v -0.948177 h 0.12643 c 0.16635,0 0.23954,0.07985 0.23954,0.296097 v 0.365963 c 0,0.189636 0.0133,0.226232 0.0333,0.286117 z m -0.59552,-1.996162 c 0.12975,0 0.18631,0.07319 0.18631,0.239539 v 0.229559 c 0,0.186308 -0.0832,0.246193 -0.21958,0.246193 h -0.14306 v -0.715291 z" />
        <path
           inkscape:connector-curvature="0"
           id="path4274"
           style="font-style:normal;font-variant:normal;font-weight:bold;font-stretch:normal;font-family:'Bebas Neue';-inkscape-font-specification:'Bebas Neue Bold';fill:#1a1a1a;stroke-width:0.00591266px"
           d="m 139.79329,88.853624 c 0,-0.166347 0.0732,-0.229559 0.18964,-0.229559 0.11644,0 0.18964,0.06321 0.18964,0.229559 v 1.257582 c 0,0.166347 -0.0732,0.229559 -0.18964,0.229559 -0.11644,0 -0.18964,-0.06321 -0.18964,-0.229559 z m -0.36596,1.234294 c 0,0.372617 0.19629,0.58554 0.5556,0.58554 0.35931,0 0.5556,-0.212923 0.5556,-0.58554 v -1.211005 c 0,-0.372617 -0.19629,-0.585541 -0.5556,-0.585541 -0.35931,0 -0.5556,0.212924 -0.5556,0.585541 z" />
        <path
           inkscape:connector-curvature="0"
           id="path4276"
           style="font-style:normal;font-variant:normal;font-weight:bold;font-stretch:normal;font-family:'Bebas Neue';-inkscape-font-specification:'Bebas Neue Bold';fill:#1a1a1a;stroke-width:0.00591266px"
           d="m 140.77635,90.646843 h 0.36597 v -2.328856 h -0.36597 z" />
        <path
           inkscape:connector-curvature="0"
           id="path4278"
           style="font-style:normal;font-variant:normal;font-weight:bold;font-stretch:normal;font-family:'Bebas Neue';-inkscape-font-specification:'Bebas Neue Bold';fill:#1a1a1a;stroke-width:0.00591266px"
           d="m 142.28829,88.317987 -0.28279,0.85835 -0.27614,-0.85835 h -0.37927 l 0.3826,1.131159 -0.40921,1.197697 h 0.34267 l 0.30275,-0.921562 0.29943,0.921562 h 0.38592 l -0.40921,-1.197697 0.3826,-1.131159 z" />
      </g>
    </g>
  </g>
</svg>
